<svg width="242" height="78" viewBox="0 0 242 78" fill="none" xmlns="http://www.w3.org/2000/svg">
<g filter="url(#filter0_dii_2_761)">
<rect x="6" y="6" width="228" height="64" rx="32" fill="#EBECF0"/>
</g>
<g filter="url(#filter1_i_2_761)">
<path d="M85.3881 30.12C84.8948 29.8667 84.3548 29.6467 83.7681 29.46C83.1815 29.2733 82.6081 29.18 82.0481 29.18C81.2748 29.18 80.6548 29.36 80.1881 29.72C79.7348 30.08 79.5081 30.56 79.5081 31.16C79.5081 31.6133 79.6548 32 79.9481 32.32C80.2415 32.6267 80.6281 32.8933 81.1081 33.12C81.5881 33.3467 82.0881 33.56 82.6081 33.76C83.0615 33.9333 83.5081 34.1267 83.9481 34.34C84.3881 34.5533 84.7815 34.82 85.1281 35.14C85.4881 35.46 85.7681 35.8533 85.9681 36.32C86.1815 36.7867 86.2881 37.3667 86.2881 38.06C86.2881 38.82 86.0948 39.5133 85.7081 40.14C85.3348 40.7667 84.7948 41.26 84.0881 41.62C83.3815 41.98 82.5415 42.16 81.5681 42.16C80.9281 42.16 80.3148 42.0867 79.7281 41.94C79.1548 41.7933 78.6215 41.6067 78.1281 41.38C77.6348 41.14 77.1948 40.8933 76.8081 40.64L77.6681 39.12C77.9881 39.3467 78.3548 39.5667 78.7681 39.78C79.1815 39.98 79.6148 40.1467 80.0681 40.28C80.5215 40.4 80.9615 40.46 81.3881 40.46C81.8415 40.46 82.2881 40.38 82.7281 40.22C83.1815 40.0467 83.5548 39.7867 83.8481 39.44C84.1415 39.0933 84.2881 38.6333 84.2881 38.06C84.2881 37.5667 84.1548 37.16 83.8881 36.84C83.6348 36.5067 83.2948 36.2267 82.8681 36C82.4415 35.76 81.9881 35.5467 81.5081 35.36C81.0548 35.1867 80.5948 35 80.1281 34.8C79.6615 34.5867 79.2281 34.3333 78.8281 34.04C78.4281 33.7333 78.1081 33.36 77.8681 32.92C77.6281 32.48 77.5081 31.9467 77.5081 31.32C77.5081 30.56 77.6881 29.9 78.0481 29.34C78.4215 28.7667 78.9281 28.32 79.5681 28C80.2081 27.6667 80.9415 27.4867 81.7681 27.46C82.7015 27.46 83.5215 27.5733 84.2281 27.8C84.9481 28.0267 85.5815 28.3067 86.1281 28.64L85.3881 30.12ZM91.0488 27.54H92.9888V42H91.0488V27.54ZM109.963 40.76C109.763 40.9333 109.483 41.1067 109.123 41.28C108.763 41.44 108.363 41.5867 107.923 41.72C107.496 41.8533 107.049 41.96 106.583 42.04C106.129 42.12 105.703 42.16 105.303 42.16C104.143 42.16 103.096 41.98 102.163 41.62C101.243 41.26 100.449 40.76 99.7825 40.12C99.1292 39.48 98.6225 38.7267 98.2625 37.86C97.9158 36.9933 97.7425 36.0533 97.7425 35.04C97.7425 33.84 97.9358 32.7667 98.3225 31.82C98.7225 30.86 99.2625 30.0533 99.9425 29.4C100.636 28.7333 101.429 28.2333 102.323 27.9C103.216 27.5533 104.163 27.38 105.163 27.38C106.003 27.38 106.783 27.48 107.503 27.68C108.223 27.88 108.856 28.1333 109.403 28.44L108.743 30.22C108.476 30.06 108.143 29.9133 107.743 29.78C107.356 29.6467 106.956 29.54 106.543 29.46C106.129 29.3667 105.743 29.32 105.383 29.32C104.529 29.32 103.756 29.4533 103.063 29.72C102.369 29.9733 101.776 30.3467 101.283 30.84C100.789 31.32 100.409 31.9067 100.143 32.6C99.8758 33.28 99.7425 34.0467 99.7425 34.9C99.7425 35.6867 99.8758 36.4067 100.143 37.06C100.409 37.7133 100.789 38.28 101.283 38.76C101.776 39.2267 102.363 39.5933 103.043 39.86C103.736 40.1133 104.496 40.24 105.323 40.24C105.816 40.24 106.303 40.1933 106.783 40.1C107.263 39.9933 107.676 39.8467 108.023 39.66V36.78H105.143V34.92H109.963V40.76ZM127.682 42.46L116.502 31.12L117.062 31.26L117.102 42H115.162V27.1H115.262L126.322 38.48L125.862 38.38L125.822 27.54H127.742V42.46H127.682ZM142.968 36.88C142.968 37.5333 143.122 38.12 143.428 38.64C143.748 39.1467 144.168 39.5467 144.688 39.84C145.208 40.1333 145.795 40.28 146.448 40.28C147.128 40.28 147.735 40.1333 148.268 39.84C148.802 39.5467 149.222 39.1467 149.528 38.64C149.835 38.12 149.988 37.5333 149.988 36.88V27.54H151.888V36.94C151.888 37.9933 151.642 38.9133 151.148 39.7C150.668 40.4867 150.015 41.0933 149.188 41.52C148.375 41.9467 147.462 42.16 146.448 42.16C145.435 42.16 144.522 41.9467 143.708 41.52C142.895 41.0933 142.248 40.4867 141.768 39.7C141.288 38.9133 141.048 37.9933 141.048 36.94V27.54H142.968V36.88ZM161.217 27.54C162.271 27.54 163.171 27.72 163.917 28.08C164.664 28.4267 165.237 28.9333 165.637 29.6C166.051 30.2667 166.257 31.0733 166.257 32.02C166.257 32.5933 166.171 33.16 165.997 33.72C165.824 34.2667 165.544 34.7667 165.157 35.22C164.784 35.66 164.291 36.0133 163.677 36.28C163.064 36.5467 162.317 36.68 161.437 36.68H159.297V42H157.357V27.54H161.217ZM161.417 34.82C161.991 34.82 162.464 34.7267 162.837 34.54C163.211 34.3533 163.504 34.12 163.717 33.84C163.931 33.5467 164.084 33.24 164.177 32.92C164.271 32.6 164.317 32.3133 164.317 32.06C164.317 31.7667 164.271 31.4667 164.177 31.16C164.084 30.84 163.924 30.5533 163.697 30.3C163.484 30.0333 163.197 29.82 162.837 29.66C162.491 29.4867 162.057 29.4 161.537 29.4H159.297V34.82H161.417Z" fill="#757E95"/>
</g>
<defs>
<filter id="filter0_dii_2_761" x="0" y="0" width="242" height="78" filterUnits="userSpaceOnUse" color-interpolation-filters="sRGB">
<feFlood flood-opacity="0" result="BackgroundImageFix"/>
<feColorMatrix in="SourceAlpha" type="matrix" values="0 0 0 0 0 0 0 0 0 0 0 0 0 0 0 0 0 0 127 0" result="hardAlpha"/>
<feOffset dx="1" dy="1"/>
<feGaussianBlur stdDeviation="3.5"/>
<feColorMatrix type="matrix" values="0 0 0 0 0.921569 0 0 0 0 0.92549 0 0 0 0 0.941176 0 0 0 1 0"/>
<feBlend mode="normal" in2="BackgroundImageFix" result="effect1_dropShadow_2_761"/>
<feBlend mode="normal" in="SourceGraphic" in2="effect1_dropShadow_2_761" result="shape"/>
<feColorMatrix in="SourceAlpha" type="matrix" values="0 0 0 0 0 0 0 0 0 0 0 0 0 0 0 0 0 0 127 0" result="hardAlpha"/>
<feOffset dx="3" dy="3"/>
<feGaussianBlur stdDeviation="4"/>
<feComposite in2="hardAlpha" operator="arithmetic" k2="-1" k3="1"/>
<feColorMatrix type="matrix" values="0 0 0 0 0.741112 0 0 0 0 0.756463 0 0 0 0 0.817868 0 0 0 1 0"/>
<feBlend mode="normal" in2="shape" result="effect2_innerShadow_2_761"/>
<feColorMatrix in="SourceAlpha" type="matrix" values="0 0 0 0 0 0 0 0 0 0 0 0 0 0 0 0 0 0 127 0" result="hardAlpha"/>
<feOffset dx="-5" dy="-4"/>
<feGaussianBlur stdDeviation="5"/>
<feComposite in2="hardAlpha" operator="arithmetic" k2="-1" k3="1"/>
<feColorMatrix type="matrix" values="0 0 0 0 0.9801 0 0 0 0 0.98538 0 0 0 0 0.99 0 0 0 1 0"/>
<feBlend mode="normal" in2="effect2_innerShadow_2_761" result="effect3_innerShadow_2_761"/>
</filter>
<filter id="filter1_i_2_761" x="76.8081" y="27.1001" width="89.4492" height="16.3599" filterUnits="userSpaceOnUse" color-interpolation-filters="sRGB">
<feFlood flood-opacity="0" result="BackgroundImageFix"/>
<feBlend mode="normal" in="SourceGraphic" in2="BackgroundImageFix" result="shape"/>
<feColorMatrix in="SourceAlpha" type="matrix" values="0 0 0 0 0 0 0 0 0 0 0 0 0 0 0 0 0 0 127 0" result="hardAlpha"/>
<feOffset dy="1"/>
<feGaussianBlur stdDeviation="1"/>
<feComposite in2="hardAlpha" operator="arithmetic" k2="-1" k3="1"/>
<feColorMatrix type="matrix" values="0 0 0 0 0.296257 0 0 0 0 0.33031 0 0 0 0 0.415444 0 0 0 1 0"/>
<feBlend mode="normal" in2="shape" result="effect1_innerShadow_2_761"/>
</filter>
</defs>
</svg>
